<?xml version="1.0" encoding="utf-8"?>
<!-- Generator: Adobe Illustrator 25.2.0, SVG Export Plug-In . SVG Version: 6.00 Build 0)  -->
<svg version="1.1" id="Layer_1" xmlns="http://www.w3.org/2000/svg" xmlns:xlink="http://www.w3.org/1999/xlink" x="0px" y="0px"
	 viewBox="0 0 512 512" style="enable-background:new 0 0 512 512;" xml:space="preserve">
<style type="text/css">
	.st0{fill:#F34605;}
</style>
<g>
	<g>
		<g>
			<path class="st0" d="M503.8,130.1L487,113.2c-5.3-5.3-12.3-8.2-19.8-8.2c-7.5,0-14.5,2.9-19.8,8.2L256.1,304.5L64.6,113
				c-5.3-5.3-12.3-8.2-19.8-8.2S30.2,107.7,25,113L8.2,129.8c-10.9,10.9-10.9,28.7,0,39.6l228,228.9c5.3,5.3,12.3,9,19.9,9h0.1
				c7.5,0,14.5-3.7,19.8-9L503.8,170c5.3-5.3,8.2-12.5,8.2-20C512,142.5,509.1,135.3,503.8,130.1z"/>
		</g>
	</g>
</g>
</svg>
