<svg xmlns="http://www.w3.org/2000/svg" viewBox="0 0 200.04 200"><defs><style>.cls-1{fill:#f34605;}</style></defs><g id="Camada_2" data-name="Camada 2"><g id="Camada_5" data-name="Camada 5"><path class="cls-1" d="M185,75.7H15.72A8.95,8.95,0,0,0,7.1,82.31,8.36,8.36,0,0,1,15,76.65H185a8.34,8.34,0,1,1,0,16.67H15a8.16,8.16,0,0,1-3-.55,8.73,8.73,0,0,0,3.69.8H185a8.94,8.94,0,0,0,0-17.87Z"/><path class="cls-1" d="M52.6,93.32a2.2,2.2,0,0,0,.17.25h94.32a2.2,2.2,0,0,0,.17-.25ZM44.47,75.7c.08.32.17.64.26,1H155.14c.09-.31.18-.63.26-1Z"/><g id="Page-1"><path id="Shape" class="cls-1" d="M185,75.7H15.72A8.95,8.95,0,0,0,7.1,82.31,8.36,8.36,0,0,1,15,76.65H185a8.34,8.34,0,1,1,0,16.67H15a8.16,8.16,0,0,1-3-.55,8.73,8.73,0,0,0,3.69.8H185a8.94,8.94,0,0,0,0-17.87Z"/><path class="cls-1" d="M185,70H159.19A60,60,0,1,0,40.83,70H15a15,15,0,0,0,0,30H35.09c15.44,20.83,18.19,69.14,18.38,95a4.75,4.75,0,0,0,8.18,3.5l9.67-10.83L81.48,198.3a5.93,5.93,0,0,0,8.41-.1L100,187.59l10.24,10.71a5.93,5.93,0,0,0,8.41-.1l10-10.53,9.83,11a4.76,4.76,0,0,0,8-3.67c.2-25.89,2.92-74,18.39-95H185a15,15,0,1,0,0-30Zm-31.52,1.49H137.75a62.21,62.21,0,0,1-4.35-22A183.59,183.59,0,0,1,154.22,53,57.38,57.38,0,0,1,153.51,71.47Zm-1.78-24.54c-5.39-1.14-11-2-16.85-2.67A50,50,0,0,1,140.31,25,52.57,52.57,0,0,1,151.73,46.93Zm-15.53-28a60.18,60.18,0,0,0-7.73,25.37q-4.45-.36-9-.53A107.54,107.54,0,0,0,109.4,5.49,57.05,57.05,0,0,1,136.2,18.92ZM119.4,49.09c3,.11,5.9.29,8.83.49a60.59,60.59,0,0,0,4,21.11H119.73A171.07,171.07,0,0,0,119.4,49.09Zm-16.93.17c4.26-.14,8.51-.2,12.78-.16a155.12,155.12,0,0,1,.38,21.45H98.2A42.3,42.3,0,0,0,102.47,49.26Zm0-43.74C108.32,12.17,113,26.62,115,44c-4,0-9.23.08-13.2.25-3.32-14.21-11-26.62-23.6-34.62A61.61,61.61,0,0,1,102.48,5.52ZM93,70.12H47.71a55.23,55.23,0,0,1-.9-7.9c14.62-7.45,34.05-11,50.54-12.16A39.32,39.32,0,0,1,93,70.12ZM73,12v0A52,52,0,0,1,96.6,44.46,146.75,146.75,0,0,0,46.07,56.69C47.82,38.11,57.82,21.52,73,12ZM54.87,134.62a139.35,139.35,0,0,0-7.49-25.78h0l19,18.37-9.62,9.28Zm25.95,6.49-9.61,9.27-9.57-9.23,9.6-9.28ZM76,127.23,85.63,118l9.59,9.26-9.6,9.25Zm9.59,18.51L95.22,155l-9.61,9.27L76,155Zm4.8-4.63,9.59-9.25,9.59,9.25L100,150.36Zm14.39-13.89,9.6-9.27,9.6,9.26-9.62,9.27Zm9.59,18.52L124,155l-9.59,9.25-9.6-9.27Zm4.79-4.63,9.62-9.27,9.61,9.28-9.62,9.27Zm9.59-18.52-8.39-8.12-1.19-1.15L133,100h19.21Zm-14.38-13.9-9-8.71h18Zm-4.79,4.63-4.87,4.7L100,122.59,95.31,118l-4.89-4.72,9.6-9.27Zm-24-4.63-9-8.71h18Zm-4.79,4.63-1.24,1.2-8.35,8L47.81,100H67Zm-24,32.49h0l9.58,9.2-7.66,7.4C58.23,156.62,57.58,151.07,56.81,145.81Zm3.29,44.44c-.08-4.88-.23-9.74-.41-14l6.93,6.66Zm11.14-12.11-9.58-9.24,9.57-9.24,9.58,9.24ZM85.64,193l-9.7-10.14,9.69-9.33,9.7,9.33Zm4.79-24.11,9.59-9.26,9.6,9.26L100,178.14Zm24,24.11-9.7-10.14,9.7-9.33,9.69,9.33Zm4.81-24.11,9.58-9.23,9.58,9.25-9.57,9.23Zm20.7,21.36-6.51-7.31,6.93-6.66C140.17,180.54,140,185.38,139.94,190.25Zm1.34-27.82L133.61,155l9.59-9.24h0C142.44,151.05,141.8,156.61,141.28,162.43Zm3.9-27.81-2,1.9-9.61-9.29,19.07-18.39A138.33,138.33,0,0,0,145.18,134.62ZM191.31,91A8.9,8.9,0,0,1,185,93.57H15.72a8.73,8.73,0,0,1-3.69-.8h0A8.36,8.36,0,0,1,6.66,85a8.15,8.15,0,0,1,.41-2.58s0,0,0,0h0a.08.08,0,0,1,0,0,8.95,8.95,0,0,1,8.62-6.61H185A8.94,8.94,0,0,1,191.31,91Z"/></g></g></g></svg>