<svg xmlns="http://www.w3.org/2000/svg" viewBox="0 0 191.36 200"><defs><style>.cls-1{fill:#f34605;}.cls-2{fill:none;}</style></defs><g id="Camada_2" data-name="Camada 2"><g id="Camada_5" data-name="Camada 5"><path class="cls-1" d="M47.52,56.46a14.64,14.64,0,0,0-4.08,6.77L39.7,76.55,31.79,104.8a52.37,52.37,0,0,1-7,15.15l2.61,2,2.71,1.81.1-.14.15-.23a58.56,58.56,0,0,0,7.73-16.8l3.67-13.1a76.55,76.55,0,0,1-2-15.17h0L44,63.06a14.86,14.86,0,0,1,8.67-9.73c.41-.17.85-.33,1.28-.46A14.86,14.86,0,0,0,47.52,56.46ZM77.59,21,75.31,28l5.58-.79,2.29-6.94ZM85.9,41.78,81.18,44l4.35,5.17L90.26,47ZM65.58,94.23l6.43-23a14.88,14.88,0,0,0-3.37-14.08l.61-.29c-.7-.94-2.5-2.7-6.51-4l-.08,0-.14-.05L62.1,53l-.37-.11a15,15,0,0,0-2.35-.46A14.86,14.86,0,0,0,43.44,63.23L39.7,76.55,31.79,104.8a52.37,52.37,0,0,1-7,15.15l2.61,2,2.71,1.81.1-.14.15-.23a58.56,58.56,0,0,0,7.73-16.8l3.67-13.1L45.8,79l3.93-14a8.28,8.28,0,0,1,6-5.83h0a8.24,8.24,0,0,1,4.21.07,8.33,8.33,0,0,1,5.76,10.26l-6,21.41-1.5,5.37-.85,3A44.14,44.14,0,0,0,55.83,114a41.67,41.67,0,0,0,1.55,8.85c.25.88.51,1.81.76,2.79a111,111,0,0,1,3.52,33.75c-1.15,20.93-19.7,31.19-25,33.68l-.44.2-26.68-7.5,1.25-7.14a124.38,124.38,0,0,0,.71-38.37L6.94,106.82a45.09,45.09,0,0,1,8.81-33.31L32,52.25a2.35,2.35,0,0,0,.24-.37l2.27-4A36.39,36.39,0,0,1,53.9,31.73c.82-.3,1.67-.56,2.52-.79l.32-.09a34.58,34.58,0,0,1,4-.82l1-.14a68.85,68.85,0,0,1,7.67-7.7l-8.68,1.24-.88.12a39,39,0,0,0-4.6.93h0a.33.33,0,0,0-.14,0h0l-.38.11a42.87,42.87,0,0,0-25.85,20l-2.17,3.8L10.56,69.53A51.74,51.74,0,0,0,.47,107.71l4.59,33.43a117.25,117.25,0,0,1-.68,36.35L2.62,187.55A3.28,3.28,0,0,0,5,191.27l30.64,8.61a3.24,3.24,0,0,0,2-.1h0a55.74,55.74,0,0,0,15.12-9.52c7.29-6.39,14.63-16.28,15.41-30.51A115.59,115.59,0,0,0,66.63,134a122.31,122.31,0,0,0-3-13,36.43,36.43,0,0,1,0-20ZM47.52,56.46a14.64,14.64,0,0,0-4.08,6.77L39.7,76.55,31.79,104.8a52.37,52.37,0,0,1-7,15.15l2.61,2,2.71,1.81.1-.14.15-.23-2.4-1.6-2.61-2a52.22,52.22,0,0,0,7-15.14L39.74,78.3h0L44,63.06a14.86,14.86,0,0,1,8.67-9.73c.41-.17.85-.33,1.28-.46A14.86,14.86,0,0,0,47.52,56.46Z"/><path class="cls-1" d="M155.11,11.16A75.79,75.79,0,0,0,60.75,23.43q-2.36,2.47-4.52,5.2L56,29h0c-.71.9-1.39,1.8-2.05,2.74a.18.18,0,0,0,0,.07c-1.05,1.46-2.05,3-3,4.54A75.63,75.63,0,0,0,39.7,76.55c0,.58,0,1.16,0,1.74h0a76.55,76.55,0,0,0,2,15.17l.24,1,4.23-15.08L45.8,79l-1-.82A70.42,70.42,0,0,1,47.35,57c0-.2.11-.39.17-.58A69.7,69.7,0,0,1,52,44.79L75.19,36.9l6,7.12,4.35,5.17L93.78,59,85.21,86.41,66.17,94l-.59.23-1.33.53-4.1-3.5-.42-.36-1.5,5.37.42.36,2.62,2.24L61.71,122a71.64,71.64,0,0,1-5.21-7l-.67-1a41.67,41.67,0,0,0,1.55,8.85c.25.88.51,1.81.76,2.79.29.34.58.66.87,1a75.15,75.15,0,0,0,7.62,7.4l.68.57a75.92,75.92,0,1,0,87.8-123.43ZM174,36a71.31,71.31,0,0,1,12.23,36.91L170.09,89.27,141.66,82.7,131.52,54.65l14.3-23.42Zm-4.48-5.9-23.55-4L131.56,6.92A70.55,70.55,0,0,1,169.52,30.12ZM74,32,55.67,38.19a69.92,69.92,0,0,1,6.09-8.3,68.85,68.85,0,0,1,7.67-7.7A70.38,70.38,0,0,1,79.6,14.92l-2,6.11L75.31,28ZM90.26,47,85.9,41.78,78.85,33.4l2-6.23,2.29-6.94L86,11.56a71.06,71.06,0,0,1,38.25-5.93l17.24,23L127.21,52,97.66,55.75Zm8.29,13.79L127,57.13l9.78,27.06-19.73,19.43L90.27,87.19ZM66.87,127.45h0l-.55-28.06L87,91.14l28,17.17,2.22,22.37L94.05,143.5A70.73,70.73,0,0,1,66.87,127.45Zm34.27,17.92,19-10.48,19,7.87A71,71,0,0,1,101.14,145.37ZM145.77,140l-23.45-9.72-2.24-22.54,20.44-20.13,28.12,6.52,3.57,24.27A70.43,70.43,0,0,1,145.77,140Zm30.64-27.9-2.82-19.18,12.59-12.76A70.44,70.44,0,0,1,176.41,112.12ZM47.35,57a14.78,14.78,0,0,0-3.35,6L39.74,78.29h0a76.55,76.55,0,0,0,2,15.17L45.8,79l-1-.82A70.42,70.42,0,0,1,47.35,57Z"/><line class="cls-2" x1="56.22" y1="30.73" x2="55.23" y2="24.26"/><path class="cls-1" d="M64.23,100.89,66,94.57l.16-.57,6.41-22.9a14.89,14.89,0,0,0-2.91-13.56L69.21,57l.1,0-.06-.08c-.7-.94-2.5-2.7-6.51-4l-.08,0-.14-.05-.22-.06a14.87,14.87,0,0,0-2.84-.51,15.08,15.08,0,0,0-3.86.2,15.9,15.9,0,0,0-1.65.41c-.43.13-.87.29-1.28.46A14.86,14.86,0,0,0,44,63.06L39.74,78.29h0l-7.38,26.34a52.22,52.22,0,0,1-7,15.14l2.61,2,2.4,1.6.32.21.09-.14a58.51,58.51,0,0,0,7.89-17L42,94.46l4.23-15.08,2-7,2.1-7.52A8.29,8.29,0,0,1,53,60.68a8.09,8.09,0,0,1,2.74-1.51h0a7.27,7.27,0,0,1,1.38-.32,8.23,8.23,0,0,1,3.4.23A8.34,8.34,0,0,1,66.3,69.33L60.6,89.66l-.45,1.6L58.8,96.05l-.15.58-.7,2.5a43.08,43.08,0,0,0-1.32,6.6,42.56,42.56,0,0,0-.13,9.3c0,.25,0,.49.08.73A41.62,41.62,0,0,0,58,122.67c.35,1.22.71,2.54,1.06,4l.18.72a111.44,111.44,0,0,1,3.05,31.89C61,180.77,41.41,191,36.83,193.1l-.14,0L10.13,185.6l1.26-7.14a124.13,124.13,0,0,0,.71-38.38L7.51,106.65a45,45,0,0,1,8.8-33.29L32.58,52.09c.09-.12.17-.24.25-.37l2.27-4A36.31,36.31,0,0,1,53.85,31.8c.84-.32,1.7-.61,2.57-.86l.32-.09.08,0-.59-2.19-.76-2.82h0v0l-.34-1.25h0l-.38.11A42.85,42.85,0,0,0,29.43,44.49l-2.16,3.79L11.13,69.38A51.58,51.58,0,0,0,1,107.55L5.63,141A117.87,117.87,0,0,1,5,177.33L3.19,187.39a3.27,3.27,0,0,0,2.33,3.71l30.65,8.61a3.18,3.18,0,0,0,1.47.07h0a2.33,2.33,0,0,0,.57-.17c1.19-.45,29-11.56,30.52-40a113,113,0,0,0-.63-19.32c-.22-1.85-.47-3.65-.76-5.37,0-.1,0-.21,0-.31-.46-2.84-1-5.48-1.57-7.9-.5-2.13-1-4.08-1.52-5.83a36.43,36.43,0,0,1,0-19.89A.24.24,0,0,0,64.23,100.89ZM55.6,52.46a15.9,15.9,0,0,0-1.65.41c-.43.13-.87.29-1.28.46A14.86,14.86,0,0,0,44,63.06L39.74,78.29h0l-7.38,26.34a52.22,52.22,0,0,1-7,15.14l2.61,2,2.4,1.6.32.21.09-.14a58.51,58.51,0,0,0,7.89-17L42,94.46l4.23-15.08,2-7,2.1-7.52A8.29,8.29,0,0,1,53,60.68a8.09,8.09,0,0,1,2.74-1.51h0a7.27,7.27,0,0,1,1.38-.32c.66-2.15,1.4-4.28,2.24-6.37a1.8,1.8,0,0,1,.08-.21A15.08,15.08,0,0,0,55.6,52.46Z"/></g></g></svg>