<svg xmlns="http://www.w3.org/2000/svg" viewBox="0 0 300.61 200"><defs><style>.cls-1{fill:#f34605;}</style></defs><g id="Camada_2" data-name="Camada 2"><g id="Camada_5" data-name="Camada 5"><path class="cls-1" d="M299.74,171.24l-1.84-6.43a22.64,22.64,0,0,0-21.69-16.37H219a16,16,0,0,1-14.42-8.91L165.83,68.3,196.06,12a3.24,3.24,0,0,0-1.3-4.38h0a3.24,3.24,0,0,0-4.38,1.32L162.11,61.62l-8.18-14.91,23-42a3.25,3.25,0,0,0,.39-1.53,3.16,3.16,0,0,0-5.93-1.52L150.32,40.12,129.19,1.64a3.17,3.17,0,0,0-5.94,1.52,3.25,3.25,0,0,0,.39,1.53l23,42,3.63,6.58,8.2,15,.61,1.1,0,0,3.08,5.67,4.49,8.28L154.2,90.85,154,90.4l-3.64-6.81-8.23-15.31-3.59-6.66L110.23,8.93a3.23,3.23,0,0,0-4.37-1.32h0a3.21,3.21,0,0,0-1.3,4.38l30.22,56.3L96.06,139.53a16,16,0,0,1-14.4,8.91H24.4A22.63,22.63,0,0,0,2.72,164.81L.87,171.24A22.57,22.57,0,0,0,22.54,200H81.66a22.39,22.39,0,0,0,20.13-12.39l24.88-46.35,0,0v0l23.63-43.95,23.6,44v0l0,0,24.89,46.35A22.38,22.38,0,0,0,219,200h59.11a22.56,22.56,0,0,0,21.67-28.76ZM22.54,193.56A16.08,16.08,0,0,1,7.09,173l1.84-6.44A16.15,16.15,0,0,1,24.4,154.89H37.76l-11,38.67Zm10.89,0,11-38.67H60.32l-11,38.67Zm62.63-8.91a16,16,0,0,1-14.4,8.91H56l11-38.67H81.64a22.41,22.41,0,0,0,20.13-12.37l5.11-9.41,12.74,7.63Zm26.62-49.59L110,127.44,130.86,89l12.5,7.52Zm23.73-44.21-12.48-7.48,4.5-8.28,8.22,15.31Zm10.84,5.69L169.75,89l20.89,38.42-12.7,7.62Zm61.71,97a16.05,16.05,0,0,1-14.42-8.91L181,140.74l12.74-7.63,5.12,9.41A22.36,22.36,0,0,0,219,154.89h14.62l11,38.67Zm32.38,0-11.05-38.67h15.87l11,38.67Zm39.57-6.41a16,16,0,0,1-12.84,6.41h-4.2l-11-38.67h13.37a16.16,16.16,0,0,1,15.48,11.68l1.84,6.44A16,16,0,0,1,290.91,187.15Z"/><path class="cls-1" d="M150.31,154.5c-18.37,0-32.22,5.87-32.22,13.65v18.2c0,7.78,13.85,13.65,32.22,13.65s32.21-5.87,32.21-13.65V169.67a1.88,1.88,0,0,0-.12-.45,6.37,6.37,0,0,0,.12-1.07C182.52,160.37,168.67,154.5,150.31,154.5Zm0,6.07c15,0,24.16,4.41,24.16,7.58s-9.19,7.58-24.16,7.58-24.17-4.41-24.17-7.58S135.34,160.57,150.31,160.57Zm0,33.36c-15,0-24.17-4.41-24.17-7.58v-9a58.62,58.62,0,0,0,24.17,4.45,58.6,58.6,0,0,0,24.16-4.45v9C174.47,189.52,165.28,193.93,150.31,193.93Z"/></g></g></svg>