<svg xmlns="http://www.w3.org/2000/svg" viewBox="0 0 279.86 210.15"><defs><style>.cls-1{fill:#f34605;}</style></defs><g id="Camada_2" data-name="Camada 2"><g id="Camada_5" data-name="Camada 5"><path class="cls-1" d="M217.74,82.87a7.17,7.17,0,0,0,2.73-7.74c-2.57-10.32-16.9-31.57-45.55-29.06l-5.79.51.13-.08-54.35,5.18.24.1c-18.51,1.86-17.82,1.8-18.29,1.89l-.65.16c-.18.06-.43.14-.65.23l0,0a7.07,7.07,0,0,0-4.35,5.54L54.74,1.41a3,3,0,0,0-5.08,3.18L88.7,67a3,3,0,0,0,1.53,1.23,39.45,39.45,0,0,1-5.1,13.3,3.32,3.32,0,0,0,.54,4.23,2.32,2.32,0,0,0,.49.4,3.35,3.35,0,0,0,4.62-1,42.35,42.35,0,0,0,4.41-9.41l15.69-1.39c.19,24,.13,16.43.32,40.42L57.62,140l-4.13-8.76A25.74,25.74,0,0,0,66.66,100.7a36.18,36.18,0,0,0,16.21-6.85,3.35,3.35,0,0,0,.6-4.7h0a3.35,3.35,0,0,0-4.69-.59,26.41,26.41,0,0,1-4.9,3C68.36,94.13,62,94.92,55.73,94.72c-.77,0-1.54-.06-2.3-.11a3,3,0,0,0-.69-2.22L5.3,36.13A3,3,0,0,0,.71,40l45.5,54a7.2,7.2,0,0,0-6.56,6.33c-2,16.73,7.69,33.6,16,51.14a7.21,7.21,0,0,0,9.58,3.45L166,107.39a63.65,63.65,0,1,0,51.74-24.52ZM46.3,101.08c.13-.83.72-.22,6.17.18a66.44,66.44,0,0,0,7.36.15,19.06,19.06,0,0,1-9.15,23.74C46.33,115,45.8,105.37,46.3,101.08ZM275.6,145.7l-10.4-12.47,3.44-14.64A59,59,0,0,1,275.6,145.7Zm-10.09-32.32-4.41,18.75-23.24,7.75-19.52-15.61v-23l22.27-8.91A59.77,59.77,0,0,1,265.51,113.38ZM216.22,128,235,143.07l-5.63,22.53H203l-5.63-22.54Zm-21.64,11.88-23.24-7.75-4.41-18.75a59.42,59.42,0,0,1,9.43-10.88L195,93.71l19.07,7.56v23ZM234.83,90.1l-18.61,7.44-15.94-6.31,7.48-3.52A59,59,0,0,1,234.83,90.1ZM97,68.83c1.6-8.76-.1-8.46,1.8-8.65,4.91-.51,30.19-3.09,54.49-5.39A15,15,0,0,1,140.74,65ZM138.25,102l-6.85,3.23-.27-32.69,6.87-.61Zm-13.53,6.37-6.84,3.23c0-2.85-.15-18.58-.31-37.86l6.87-.6Zm-63,40.22L60.47,146,184.9,87.42a3.35,3.35,0,0,0-2.85-6.07l-37.13,17.5L144.7,71a21.62,21.62,0,0,0,15.61-16.88c5.29-.49,10.43-1,15.2-1.37,14.27-1.26,26.12,4,34.24,15.56l-18.07,8.5a3.36,3.36,0,0,0,2.86,6.07l18.52-8.73a20.59,20.59,0,0,1,.84,2.35c.12.42.25.79-.16,1L193.51,87l-8.68,4.1C54.84,152.38,62,149.22,61.67,148.58Zm102.12-30,3.44,14.64-10.4,12.47A59,59,0,0,1,163.79,118.6ZM157.09,152l13.15-15.8,23,7.66,5.84,23.35L187.7,182.39l-21.13-3.33A59,59,0,0,1,157.09,152Zm13,31.87,17.24,2.73L197.79,203A59.49,59.49,0,0,1,170.12,183.91Zm33.76,20.71h0l-12.66-19.82,11.21-14.95H230l11.37,15-11,19.33A59.15,59.15,0,0,1,203.88,204.62Zm32.36-2.2,9-15.82,17-2.69A59.57,59.57,0,0,1,236.24,202.42Zm29.62-23.36-21,3.32-11.45-15.13,5.83-23.34,23-7.66,13.17,15.8A59.09,59.09,0,0,1,265.86,179.06Z"/></g></g></svg>