<svg xmlns="http://www.w3.org/2000/svg" viewBox="0 0 210.59 199.96"><defs><style>.cls-1{fill:#f34605;}.cls-2{fill:none;}</style></defs><g id="Camada_2" data-name="Camada 2"><g id="Camada_5" data-name="Camada 5"><path class="cls-1" d="M130.13,135a2.11,2.11,0,0,1,.54.22v-.44ZM62.87,124.67v.52h.65C63.3,125,63.08,124.85,62.87,124.67ZM175.87,87v1c.07-.32.14-.64.2-1Z"/><path class="cls-1" d="M63.52,125.19h-.65v-.52C63.08,124.85,63.3,125,63.52,125.19Z"/><path class="cls-1" d="M176.07,87c-.06.33-.13.65-.2,1V87Z"/><line class="cls-2" x1="33.03" y1="72.03" x2="16.99" y2="72.03"/><line class="cls-2" x1="193.53" y1="72.03" x2="177.57" y2="72.03"/><path class="cls-1" d="M79.9,60.51a2.41,2.41,0,0,0-4.46,1.81c.11.28.23.55.35.83h0a2.41,2.41,0,0,0,1.91-.42c.18-.13,1-.76,2.3-1.91A3.09,3.09,0,0,1,79.9,60.51Zm0,0a2.41,2.41,0,0,0-4.46,1.81c.11.28.23.55.35.83h0a2.41,2.41,0,0,0,1.91-.42c.18-.13,1-.76,2.3-1.91A3.09,3.09,0,0,1,79.9,60.51Zm0,0a2.41,2.41,0,0,0-4.46,1.81c.11.28.23.55.35.83h0a2.41,2.41,0,0,0,1.91-.42c.18-.13,1-.76,2.3-1.91A3.09,3.09,0,0,1,79.9,60.51Zm0,0a2.41,2.41,0,0,0-4.46,1.81c.11.28.23.55.35.83h0a2.41,2.41,0,0,0,1.91-.42c.18-.13,1-.76,2.3-1.91A3.09,3.09,0,0,1,79.9,60.51Zm0,0a2.41,2.41,0,0,0-4.46,1.81c.11.28.23.55.35.83h0a2.41,2.41,0,0,0,1.91-.42c.18-.13,1-.76,2.3-1.91A3.09,3.09,0,0,1,79.9,60.51Zm0,0a2.41,2.41,0,0,0-4.46,1.81c.11.28.23.55.35.83h0a2.41,2.41,0,0,0,1.91-.42c.18-.13,1-.76,2.3-1.91A3.09,3.09,0,0,1,79.9,60.51Zm0,0a2.41,2.41,0,0,0-4.46,1.81c.11.28.23.55.35.83h0a2.41,2.41,0,0,0,1.91-.42c.18-.13,1-.76,2.3-1.91A3.09,3.09,0,0,1,79.9,60.51Zm0,0a2.41,2.41,0,0,0-4.46,1.81c.11.28.23.55.35.83h0a2.41,2.41,0,0,0,1.91-.42c.18-.13,1-.76,2.3-1.91A3.09,3.09,0,0,1,79.9,60.51Zm0,0a2.41,2.41,0,0,0-4.46,1.81c.11.28.23.55.35.83h0a2.41,2.41,0,0,0,1.91-.42c.18-.13,1-.76,2.3-1.91A3.09,3.09,0,0,1,79.9,60.51Zm0,0a2.41,2.41,0,0,0-4.46,1.81c.11.28.23.55.35.83h0a2.41,2.41,0,0,0,1.91-.42c.18-.13,1-.76,2.3-1.91A3.09,3.09,0,0,1,79.9,60.51Zm0,0a2.41,2.41,0,0,0-4.46,1.81c.11.28.23.55.35.83h0a2.41,2.41,0,0,0,1.91-.42c.18-.13,1-.76,2.3-1.91A3.09,3.09,0,0,1,79.9,60.51ZM52.74,71.94l-.08.09h.11ZM79.9,60.51a2.41,2.41,0,0,0-4.46,1.81c.11.28.23.55.35.83h0a2.41,2.41,0,0,0,1.91-.42c.18-.13,1-.76,2.3-1.91A3.09,3.09,0,0,1,79.9,60.51Zm0,0a2.41,2.41,0,0,0-4.46,1.81c.11.28.23.55.35.83h0a2.41,2.41,0,0,0,1.91-.42c.18-.13,1-.76,2.3-1.91A3.09,3.09,0,0,1,79.9,60.51ZM52.74,71.94l-.08.09h.11ZM79.9,60.51a2.41,2.41,0,0,0-4.46,1.81c.11.28.23.55.35.83h0a2.41,2.41,0,0,0,1.91-.42c.18-.13,1-.76,2.3-1.91A3.09,3.09,0,0,1,79.9,60.51Zm0,0a2.41,2.41,0,0,0-4.46,1.81c.11.28.23.55.35.83h0a2.41,2.41,0,0,0,1.91-.42c.18-.13,1-.76,2.3-1.91A3.09,3.09,0,0,1,79.9,60.51ZM52.74,71.94l-.08.09h.11ZM79.9,60.51a2.41,2.41,0,0,0-4.46,1.81c.11.28.23.55.35.83h0a2.41,2.41,0,0,0,1.91-.42c.18-.13,1-.76,2.3-1.91A3.09,3.09,0,0,1,79.9,60.51Zm0,0a2.41,2.41,0,0,0-4.46,1.81c.11.28.23.55.35.83h0a2.41,2.41,0,0,0,1.91-.42c.18-.13,1-.76,2.3-1.91A3.09,3.09,0,0,1,79.9,60.51ZM52.74,71.94l-.08.09h.11ZM79.9,60.51a2.41,2.41,0,0,0-4.46,1.81c.11.28.23.55.35.83h0a2.41,2.41,0,0,0,1.91-.42c.18-.13,1-.76,2.3-1.91A3.09,3.09,0,0,1,79.9,60.51Zm0,0a2.41,2.41,0,0,0-4.46,1.81c.11.28.23.55.35.83h0a2.41,2.41,0,0,0,1.91-.42c.18-.13,1-.76,2.3-1.91A3.09,3.09,0,0,1,79.9,60.51ZM52.74,71.94l-.08.09h.11ZM79.9,60.51a2.41,2.41,0,0,0-4.46,1.81c.11.28.23.55.35.83h0a2.41,2.41,0,0,0,1.91-.42c.18-.13,1-.76,2.3-1.91A3.09,3.09,0,0,1,79.9,60.51Zm0,0a2.41,2.41,0,0,0-4.46,1.81c.11.28.23.55.35.83h0a2.41,2.41,0,0,0,1.91-.42c.18-.13,1-.76,2.3-1.91A3.09,3.09,0,0,1,79.9,60.51ZM52.74,71.94l-.08.09h.11ZM79.9,60.51a2.41,2.41,0,0,0-4.46,1.81c.11.28.23.55.35.83h0a2.41,2.41,0,0,0,1.91-.42c.18-.13,1-.76,2.3-1.91A3.09,3.09,0,0,1,79.9,60.51Zm0,0a2.41,2.41,0,0,0-4.46,1.81c.11.28.23.55.35.83h0a2.41,2.41,0,0,0,1.91-.42c.18-.13,1-.76,2.3-1.91A3.09,3.09,0,0,1,79.9,60.51ZM52.74,71.94l-.08.09h.11ZM79.9,60.51a2.41,2.41,0,0,0-4.46,1.81c.11.28.23.55.35.83h0a2.41,2.41,0,0,0,1.91-.42c.18-.13,1-.76,2.3-1.91A3.09,3.09,0,0,1,79.9,60.51Zm0,0a2.41,2.41,0,0,0-4.46,1.81c.11.28.23.55.35.83h0a2.41,2.41,0,0,0,1.91-.42c.18-.13,1-.76,2.3-1.91A3.09,3.09,0,0,1,79.9,60.51ZM52.74,71.94l-.08.09h.11ZM79.9,60.51a2.41,2.41,0,0,0-4.46,1.81c.11.28.23.55.35.83h0a2.41,2.41,0,0,0,1.91-.42c.18-.13,1-.76,2.3-1.91A3.09,3.09,0,0,1,79.9,60.51Zm0,0a2.41,2.41,0,0,0-4.46,1.81c.11.28.23.55.35.83h0a2.41,2.41,0,0,0,1.91-.42c.18-.13,1-.76,2.3-1.91A3.09,3.09,0,0,1,79.9,60.51ZM52.74,71.94l-.08.09h.11ZM79.9,60.51a2.41,2.41,0,0,0-4.46,1.81c.11.28.23.55.35.83h0a2.41,2.41,0,0,0,1.91-.42c.18-.13,1-.76,2.3-1.91A3.09,3.09,0,0,1,79.9,60.51Zm0,0a2.41,2.41,0,0,0-4.46,1.81c.11.28.23.55.35.83h0a2.41,2.41,0,0,0,1.91-.42c.18-.13,1-.76,2.3-1.91A3.09,3.09,0,0,1,79.9,60.51ZM52.74,71.94l-.08.09h.11ZM79.9,60.51a2.41,2.41,0,0,0-4.46,1.81c.11.28.23.55.35.83h0a2.41,2.41,0,0,0,1.91-.42c.18-.13,1-.76,2.3-1.91A3.09,3.09,0,0,1,79.9,60.51Zm0,0a2.41,2.41,0,0,0-4.46,1.81c.11.28.23.55.35.83h0a2.41,2.41,0,0,0,1.91-.42c.18-.13,1-.76,2.3-1.91A3.09,3.09,0,0,1,79.9,60.51ZM52.74,71.94l-.08.09h.11ZM79.9,60.51a2.41,2.41,0,0,0-4.46,1.81c.11.28.23.55.35.83h0a2.41,2.41,0,0,0,1.91-.42c.18-.13,1-.76,2.3-1.91A3.09,3.09,0,0,1,79.9,60.51Zm0,0a2.41,2.41,0,0,0-4.46,1.81c.11.28.23.55.35.83h0a2.41,2.41,0,0,0,1.91-.42c.18-.13,1-.76,2.3-1.91A3.09,3.09,0,0,1,79.9,60.51ZM52.74,71.94l-.08.09h.11ZM79.9,60.51a2.41,2.41,0,0,0-4.46,1.81c.11.28.23.55.35.83h0a2.41,2.41,0,0,0,1.91-.42c.18-.13,1-.76,2.3-1.91A3.09,3.09,0,0,1,79.9,60.51Zm0,0a2.41,2.41,0,0,0-4.46,1.81c.11.28.23.55.35.83h0a2.41,2.41,0,0,0,1.91-.42c.18-.13,1-.76,2.3-1.91A3.09,3.09,0,0,1,79.9,60.51ZM52.74,71.94l-.08.09h.11ZM79.9,60.51a2.41,2.41,0,0,0-4.46,1.81c.11.28.23.55.35.83h0a2.41,2.41,0,0,0,1.91-.42c.18-.13,1-.76,2.3-1.91A3.09,3.09,0,0,1,79.9,60.51Zm0,0a2.41,2.41,0,0,0-4.46,1.81c.11.28.23.55.35.83h0a2.41,2.41,0,0,0,1.91-.42c.18-.13,1-.76,2.3-1.91A3.09,3.09,0,0,1,79.9,60.51Zm0,0a2.41,2.41,0,0,0-4.46,1.81c.11.28.23.55.35.83h0a2.41,2.41,0,0,0,1.91-.42c.18-.13,1-.76,2.3-1.91A3.09,3.09,0,0,1,79.9,60.51ZM130.13,135a2.11,2.11,0,0,1,.54.22v-.44Zm-77.39-63-.08.09h.11Zm10.13,52.73v.52h.65C63.3,125,63.08,124.85,62.87,124.67Zm17-64.16a2.41,2.41,0,0,0-4.46,1.81c.11.28.23.55.35.83h0a2.41,2.41,0,0,0,1.91-.42c.18-.13,1-.76,2.3-1.91A3.09,3.09,0,0,1,79.9,60.51Zm0,0a2.41,2.41,0,0,0-4.46,1.81c.11.28.23.55.35.83h0a2.41,2.41,0,0,0,1.91-.42c.18-.13,1-.76,2.3-1.91A3.09,3.09,0,0,1,79.9,60.51ZM52.74,71.94l-.08.09h.11ZM79.9,60.51a2.41,2.41,0,0,0-4.46,1.81c.11.28.23.55.35.83h0a2.41,2.41,0,0,0,1.91-.42c.18-.13,1-.76,2.3-1.91A3.09,3.09,0,0,1,79.9,60.51Zm0,0a2.41,2.41,0,0,0-4.46,1.81c.11.28.23.55.35.83h0a2.41,2.41,0,0,0,1.91-.42c.18-.13,1-.76,2.3-1.91A3.09,3.09,0,0,1,79.9,60.51ZM52.74,71.94l-.08.09h.11ZM79.9,60.51a2.41,2.41,0,0,0-4.46,1.81c.11.28.23.55.35.83h0a2.41,2.41,0,0,0,1.91-.42c.18-.13,1-.76,2.3-1.91A3.09,3.09,0,0,1,79.9,60.51Zm0,0a2.41,2.41,0,0,0-4.46,1.81c.11.28.23.55.35.83h0a2.41,2.41,0,0,0,1.91-.42c.18-.13,1-.76,2.3-1.91A3.09,3.09,0,0,1,79.9,60.51ZM52.74,71.94l-.08.09h.11ZM79.9,60.51a2.41,2.41,0,0,0-4.46,1.81c.11.28.23.55.35.83h0a2.41,2.41,0,0,0,1.91-.42c.18-.13,1-.76,2.3-1.91A3.09,3.09,0,0,1,79.9,60.51Zm0,0a2.41,2.41,0,0,0-4.46,1.81c.11.28.23.55.35.83h0a2.41,2.41,0,0,0,1.91-.42c.18-.13,1-.76,2.3-1.91A3.09,3.09,0,0,1,79.9,60.51ZM52.74,71.94l-.08.09h.11ZM79.9,60.51a2.41,2.41,0,0,0-4.46,1.81c.11.28.23.55.35.83h0a2.41,2.41,0,0,0,1.91-.42c.18-.13,1-.76,2.3-1.91A3.09,3.09,0,0,1,79.9,60.51Zm0,0a2.41,2.41,0,0,0-4.46,1.81c.11.28.23.55.35.83h0a2.41,2.41,0,0,0,1.91-.42c.18-.13,1-.76,2.3-1.91A3.09,3.09,0,0,1,79.9,60.51ZM52.74,71.94l-.08.09h.11ZM79.9,60.51a2.41,2.41,0,0,0-4.46,1.81c.11.28.23.55.35.83h0a2.41,2.41,0,0,0,1.91-.42c.18-.13,1-.76,2.3-1.91A3.09,3.09,0,0,1,79.9,60.51Zm0,0a2.41,2.41,0,0,0-4.46,1.81c.11.28.23.55.35.83h0a2.41,2.41,0,0,0,1.91-.42c.18-.13,1-.76,2.3-1.91A3.09,3.09,0,0,1,79.9,60.51ZM52.74,71.94l-.08.09h.11ZM79.9,60.51a2.41,2.41,0,0,0-4.46,1.81c.11.28.23.55.35.83h0a2.41,2.41,0,0,0,1.91-.42c.18-.13,1-.76,2.3-1.91A3.09,3.09,0,0,1,79.9,60.51Zm0,0a2.41,2.41,0,0,0-4.46,1.81c.11.28.23.55.35.83h0a2.41,2.41,0,0,0,1.91-.42c.18-.13,1-.76,2.3-1.91A3.09,3.09,0,0,1,79.9,60.51ZM52.74,71.94l-.08.09h.11ZM79.9,60.51a2.41,2.41,0,0,0-4.46,1.81c.11.28.23.55.35.83h0a2.41,2.41,0,0,0,1.91-.42c.18-.13,1-.76,2.3-1.91A3.09,3.09,0,0,1,79.9,60.51Zm0,0a2.41,2.41,0,0,0-4.46,1.81c.11.28.23.55.35.83h0a2.41,2.41,0,0,0,1.91-.42c.18-.13,1-.76,2.3-1.91A3.09,3.09,0,0,1,79.9,60.51ZM52.74,71.94l-.08.09h.11ZM79.9,60.51a2.41,2.41,0,0,0-4.46,1.81c.11.28.23.55.35.83h0a2.41,2.41,0,0,0,1.91-.42c.18-.13,1-.76,2.3-1.91A3.09,3.09,0,0,1,79.9,60.51Zm0,0a2.41,2.41,0,0,0-4.46,1.81c.11.28.23.55.35.83h0a2.41,2.41,0,0,0,1.91-.42c.18-.13,1-.76,2.3-1.91A3.09,3.09,0,0,1,79.9,60.51ZM52.74,71.94l-.08.09h.11ZM79.9,60.51a2.41,2.41,0,0,0-4.46,1.81c.11.28.23.55.35.83h0a2.41,2.41,0,0,0,1.91-.42c.18-.13,1-.76,2.3-1.91A3.09,3.09,0,0,1,79.9,60.51Zm0,0a2.41,2.41,0,0,0-4.46,1.81c.11.28.23.55.35.83h0a2.41,2.41,0,0,0,1.91-.42c.18-.13,1-.76,2.3-1.91A3.09,3.09,0,0,1,79.9,60.51ZM52.74,71.94l-.08.09h.11ZM79.9,60.51a2.41,2.41,0,0,0-4.46,1.81c.11.28.23.55.35.83h0a2.41,2.41,0,0,0,1.91-.42c.18-.13,1-.76,2.3-1.91A3.09,3.09,0,0,1,79.9,60.51Zm0,0a2.41,2.41,0,0,0-4.46,1.81c.11.28.23.55.35.83h0a2.41,2.41,0,0,0,1.91-.42c.18-.13,1-.76,2.3-1.91A3.09,3.09,0,0,1,79.9,60.51ZM52.74,71.94l-.08.09h.11ZM79.9,60.51a2.41,2.41,0,0,0-4.46,1.81c.11.28.23.55.35.83h0a2.41,2.41,0,0,0,1.91-.42c.18-.13,1-.76,2.3-1.91A3.09,3.09,0,0,1,79.9,60.51Zm0,0a2.41,2.41,0,0,0-4.46,1.81c.11.28.23.55.35.83h0a2.41,2.41,0,0,0,1.91-.42c.18-.13,1-.76,2.3-1.91A3.09,3.09,0,0,1,79.9,60.51ZM52.74,71.94l-.08.09h.11ZM79.9,60.51a2.41,2.41,0,0,0-4.46,1.81c.11.28.23.55.35.83h0a2.41,2.41,0,0,0,1.91-.42c.18-.13,1-.76,2.3-1.91A3.09,3.09,0,0,1,79.9,60.51Zm0,0a2.41,2.41,0,0,0-4.46,1.81c.11.28.23.55.35.83h0a2.41,2.41,0,0,0,1.91-.42c.18-.13,1-.76,2.3-1.91A3.09,3.09,0,0,1,79.9,60.51ZM52.74,71.94l-.08.09h.11ZM79.9,60.51a2.41,2.41,0,0,0-4.46,1.81c.11.28.23.55.35.83h0a2.41,2.41,0,0,0,1.91-.42c.18-.13,1-.76,2.3-1.91A3.09,3.09,0,0,1,79.9,60.51Zm0,0a2.41,2.41,0,0,0-4.46,1.81c.11.28.23.55.35.83h0a2.41,2.41,0,0,0,1.91-.42c.18-.13,1-.76,2.3-1.91A3.09,3.09,0,0,1,79.9,60.51ZM52.74,71.94l-.08.09h.11ZM79.9,60.51a2.41,2.41,0,0,0-4.46,1.81c.11.28.23.55.35.83h0a2.41,2.41,0,0,0,1.91-.42c.18-.13,1-.76,2.3-1.91A3.09,3.09,0,0,1,79.9,60.51Zm0,0a2.41,2.41,0,0,0-4.46,1.81c.11.28.23.55.35.83h0a2.41,2.41,0,0,0,1.91-.42c.18-.13,1-.76,2.3-1.91A3.09,3.09,0,0,1,79.9,60.51Zm0,0a2.41,2.41,0,0,0-4.46,1.81c.11.28.23.55.35.83h0a2.41,2.41,0,0,0,1.91-.42c.18-.13,1-.76,2.3-1.91A3.09,3.09,0,0,1,79.9,60.51Zm0,0a2.41,2.41,0,0,0-4.46,1.81c.11.28.23.55.35.83h0a2.41,2.41,0,0,0,1.91-.42c.18-.13,1-.76,2.3-1.91A3.09,3.09,0,0,1,79.9,60.51Zm0,0a2.41,2.41,0,0,0-4.46,1.81c.11.28.23.55.35.83h0a2.41,2.41,0,0,0,1.91-.42c.18-.13,1-.76,2.3-1.91A3.09,3.09,0,0,1,79.9,60.51Zm0,0a2.41,2.41,0,0,0-4.46,1.81c.11.28.23.55.35.83h0a2.41,2.41,0,0,0,1.91-.42c.18-.13,1-.76,2.3-1.91A3.09,3.09,0,0,1,79.9,60.51Zm0,0a2.41,2.41,0,0,0-4.46,1.81c.11.28.23.55.35.83h0a2.41,2.41,0,0,0,1.91-.42c.18-.13,1-.76,2.3-1.91A3.09,3.09,0,0,1,79.9,60.51Zm0,0a2.41,2.41,0,0,0-4.46,1.81c.11.28.23.55.35.83h0a2.41,2.41,0,0,0,1.91-.42c.18-.13,1-.76,2.3-1.91A3.09,3.09,0,0,1,79.9,60.51Zm0,0a2.41,2.41,0,0,0-4.46,1.81c.11.28.23.55.35.83h0a2.41,2.41,0,0,0,1.91-.42c.18-.13,1-.76,2.3-1.91A3.09,3.09,0,0,1,79.9,60.51Zm0,0a2.41,2.41,0,0,0-4.46,1.81c.11.28.23.55.35.83h0a2.41,2.41,0,0,0,1.91-.42c.18-.13,1-.76,2.3-1.91A3.09,3.09,0,0,1,79.9,60.51Zm0,0a2.41,2.41,0,0,0-4.46,1.81c.11.28.23.55.35.83h0a2.41,2.41,0,0,0,1.91-.42c.18-.13,1-.76,2.3-1.91A3.09,3.09,0,0,1,79.9,60.51Z"/><path class="cls-1" d="M130.13,135a2.11,2.11,0,0,1,.54.22v-.44ZM62.87,124.67v.52h.65C63.3,125,63.08,124.85,62.87,124.67ZM175.87,87v1c.07-.32.14-.64.2-1Z"/><path class="cls-1" d="M80,60.83c-1.28,1.15-2.12,1.78-2.3,1.91a2.41,2.41,0,0,1-1.91.42h0c-.12-.28-.24-.55-.35-.83a2.41,2.41,0,0,1,4.46-1.81A3.09,3.09,0,0,0,80,60.83Z"/><path class="cls-1" d="M52.77,72h-.11l.08-.09Z"/><path class="cls-1" d="M80,60.83c-1.28,1.15-2.12,1.78-2.3,1.91a2.41,2.41,0,0,1-1.91.42h0c-.12-.28-.24-.55-.35-.83a2.41,2.41,0,0,1,4.46-1.81A3.09,3.09,0,0,0,80,60.83Z"/><path class="cls-1" d="M207.48,60.47H196.82a3,3,0,0,0-3.11,3V82.93H176.79a73,73,0,0,0,.78-10.7V72A72.23,72.23,0,0,0,101.52.1c-.64,0-1.27.07-1.91.13A72.19,72.19,0,0,0,33,72v.2a73,73,0,0,0,.78,10.7H16.89V63.45a3,3,0,0,0-3.11-3H3.11a3,3,0,0,0-3.11,3V200H3.54V63.84h9.63V200h3.72V172.23H193.71V200h3.62V63.83H207V200h3.63V63.45A3,3,0,0,0,207.48,60.47ZM153,24.55a67.89,67.89,0,0,1,10.89,14.18h0a.17.17,0,0,0,0,.07,85.43,85.43,0,0,1-9,33.22,99.78,99.78,0,0,1-6.28,10.9q-1.41,2.11-2.81,4a102.84,102.84,0,0,1-15.15,16.63l-.8.68h0c-1.42-.47-2.85-1-4.3-1.55a94.79,94.79,0,0,1-17.49-8.78c-1.73-1.11-3.44-2.3-5.11-3.58-1.22-.92-2.43-1.89-3.61-2.9l.59-.5c1.17-1,2.67-2.33,4.39-4A103.21,103.21,0,0,0,113.91,72,109.38,109.38,0,0,0,136,12.18,67.47,67.47,0,0,1,153,24.55Zm-95.39,0A67.15,67.15,0,0,1,98.33,5.18a78.16,78.16,0,0,1-3,21.11c-21.59-5.24-38.49,3.95-48.1,11.53A68.07,68.07,0,0,1,57.6,24.54Zm-22.44,143H17.67V150.49H35.16Zm0-21.18H17.67V129.31H35.16Zm0-21.18H17.67v-17H35.16Zm0-21.18H17.67V87H34.53c.19.94.4,1.87.63,2.8Zm3.73-19.86c-.07-.41-.14-.81-.2-1.22a67.84,67.84,0,0,1-.84-10.7V72a67.29,67.29,0,0,1,3.83-22.3,2.18,2.18,0,0,0,.52-.49c.2-.26,20.58-25.67,51.65-18.35-5.77,16-15.4,25-18.19,27.34-10.79-1.77-20.88,3-29.3,13.8-.26.32-.51.65-.76,1a71.17,71.17,0,0,0-6.1,9.91C39.29,83.35,39.09,83.76,38.89,84.15Zm1.38,24h2.27a72.84,72.84,0,0,0,11.65,15.19c.64.64,1.28,1.26,1.93,1.86H40.27Zm17.49,59.41H40.27V150.49H57.76Zm0-21.18H40.27V129.31H57.76Zm22.6,21.18H62.87V150.49H80.36Zm0-21.18H62.87V130.74a71.54,71.54,0,0,0,17.49,9.31ZM103,167.55H85.47V150.49H103Zm0-21.18H85.47V141.7A72.27,72.27,0,0,0,103,144.42Zm0-6.77a66.9,66.9,0,0,1-17.49-2.91c-1.72-.52-3.43-1.12-5.11-1.79a65.5,65.5,0,0,1-11-5.59,64.09,64.09,0,0,1-5.83-4.12h-.65v-.52a66.42,66.42,0,0,1-5.11-4.58l-.16-.16a67.87,67.87,0,0,1-9.43-11.79c-.85-1.35-1.66-2.73-2.41-4.13a66.61,66.61,0,0,1-5-12.07c.38-1,1.09-2.79,2.14-5,.59-1.23,1.28-2.6,2.07-4a62.72,62.72,0,0,1,4.16-6.57q1.18,3.4,2.6,6.57c.6,1.38,1.23,2.72,1.9,4a82.09,82.09,0,0,0,4.13,7.34,84.4,84.4,0,0,0,5.11,7.3c.63.82,1.28,1.62,1.95,2.41,1.19,1.44,2.41,2.81,3.67,4.13a94.75,94.75,0,0,0,11.87,10.62c1.71,1.3,3.42,2.5,5.11,3.63,1.5,1,3,1.93,4.45,2.8,1.87,1.11,3.7,2.12,5.47,3,.72.37,1.44.74,2.15,1.08,1.85.92,3.66,1.75,5.42,2.51s3.46,1.45,5.11,2.08a121.85,121.85,0,0,0,12.56,4,66.68,66.68,0,0,1-12.56,1.7C106.37,139.66,104.67,139.67,103,139.6Zm22.6,28H108.07V150.49h17.49Zm0-21.18H108.07v-2a72.33,72.33,0,0,0,17.49-2.82Zm22.6,21.18H130.67V150.49h17.49Zm0-21.18H130.67v-6.48a71.74,71.74,0,0,0,17.49-9.46Zm0-22.06c-.36.3-.72.6-1.09.88a66.76,66.76,0,0,1-16.4,9.54v.44a2.11,2.11,0,0,0-.54-.22h0a1.27,1.27,0,0,0-.28-.06c-.09,0-1.65-.24-4.28-.81a115.3,115.3,0,0,1-15.76-4.77c-3-1.15-6.2-2.51-9.51-4.12a104.93,104.93,0,0,1-14.82-8.77c-1.72-1.21-3.43-2.5-5.11-3.88s-3.37-2.85-5-4.4q-2.09-2-4.08-4.13a83.17,83.17,0,0,1-8.4-10.68A81.17,81.17,0,0,1,57,82.93,83.74,83.74,0,0,1,52.77,72h-.11l.08-.09c6.95-7.54,14.69-10.49,23.05-8.79-.12-.28-.24-.55-.35-.83a2.41,2.41,0,0,1,4.46-1.81,3.09,3.09,0,0,0,.14.32c6.27-5.64,23-23.73,23.11-56,.72,0,1.43,0,2.15,0a67.68,67.68,0,0,1,26,5.18,105.31,105.31,0,0,1-23.7,62,93.07,93.07,0,0,1-10.41,10.9c-.55.49-1,.89-1.43,1.22-.41-.4-.82-.8-1.22-1.22A69,69,0,0,1,80,60.83c-1.28,1.15-2.12,1.78-2.3,1.91a2.41,2.41,0,0,1-1.91.42h0A72.05,72.05,0,0,0,80.22,72,73.78,73.78,0,0,0,88,82.93q1.77,2.08,3.72,4A81.52,81.52,0,0,0,103,96.36q2.48,1.74,5.11,3.31,3.87,2.34,8.08,4.34a105.52,105.52,0,0,0,10.51,4.34c1.35.48,2.69.92,4,1.33a126,126,0,0,0,17.49,4.14c1.86.31,3.57.55,5.11.74s3,.33,4.2.43q-2,2.42-4.2,4.65l-.28.29A64.06,64.06,0,0,1,148.16,124.31Zm22.61,43.24h-17.5V150.49h17.5Zm0-21.18h-17.5V129.31h17.5Zm0-21.18h-16.3c.65-.6,1.29-1.22,1.93-1.86a72.5,72.5,0,0,0,11.65-15.19h2.72Zm0-21.18h-.53c.18-.36.36-.73.53-1.1Zm2-31.78a66.67,66.67,0,0,1-.85,10.7q-.43,2.83-1.13,5.61A66.25,66.25,0,0,1,164.83,104q-1.12,2.1-2.41,4.13c-.47.76-1,1.5-1.48,2.24-1.36-.06-4.05-.24-7.67-.71-1.55-.2-3.26-.46-5.11-.78-1.26-.22-2.59-.47-4-.75-2.77-.57-5.75-1.28-8.88-2.17.63-.56,1.34-1.22,2.11-2a106.86,106.86,0,0,0,10.75-12,105,105,0,0,0,6.33-9.13A99.57,99.57,0,0,0,160.37,72a91.3,91.3,0,0,0,7.51-25,67.42,67.42,0,0,1,4.87,25Zm20.62,95.32h-17.5V150.49h17.5Zm0-21.18h-17.5V129.31h17.5Zm0-21.18h-17.5v-17h17.5Zm0-21.18h-17.5V87h17.5Z"/></g></g></svg>