<svg xmlns="http://www.w3.org/2000/svg" viewBox="0 0 266.97 200"><defs><style>.cls-1{fill:#f34605;}</style></defs><g id="Camada_2" data-name="Camada 2"><g id="Camada_5" data-name="Camada 5"><path class="cls-1" d="M202.72,145.78q-3.84-2.55-7.61-5.15t-7.54-5.3c-1.53-.21-3-.47-4.56-.79v0l-3-4.75q-5.58-4.16-10.92-8.39l7.24,11.34a65,65,0,0,1-8.06-3.26q4.77,3.73,9.72,7.37h0l-.71,0h-.08c-.25,0-.5,0-.75,0h-.13l-.75-.06h-.09c-.25,0-.5-.06-.75-.11h-.06l-.79-.16-.12,0c-.26-.06-.52-.12-.78-.2l-.09,0c-.27-.07-.53-.15-.79-.24h0l-.8-.28-.12,0-.78-.3-.1,0c-.54-.22-1.07-.46-1.59-.71l-.11-.05-.75-.38-.12-.05c-.51-.27-1-.55-1.51-.84l-.09-.06-.71-.41-.11-.07-.52-.32a3.43,3.43,0,0,0-4.74-4.86l-1,.73-.29-.24,0,0-.3-.26-.07,0-.24-.21-.06,0-.17-.17s0,0,0,0l-.16-.13,0,0-.1-.09h0l0,0-4.66-4.21a3.42,3.42,0,0,0,.64-3.22c-.85-.75-1.69-1.52-2.51-2.32a3.42,3.42,0,0,0-2.78.56l-.47.34-7.19-6.51a3.43,3.43,0,0,0-4.15-5.3,3.35,3.35,0,0,0-.45.27l-.54.39-7.17-6.5a3.43,3.43,0,0,0-4.57-5.07l-.57.41L115.8,89.4a3.44,3.44,0,0,0-4.54-5.11l-.62.44-4.72-4.27c.37-.25.73-.52,1.1-.79l.3-.23.85-.65.38-.29.84-.68.31-.26.12-.09C115.67,82.59,125.5,91.87,132,98c2.84,2.69,5,4.79,6,5.68a3.4,3.4,0,0,0,2.73.91,65.42,65.42,0,0,1-6.44-13.9l-6.51-6.14c-5.85-5.48-11.93-11.08-15.43-14l-10.58-15a3.42,3.42,0,0,0-4.2-1.16c-6.66,2.95-10.68,7.1-12,12.36-1.32,5.43.65,10.66,2.77,14.37-7.26,1.7-15.23,1.06-24.69-1.93h0c-1.86-.59-3.83-1.28-5.85-2.07-8.94-3.45-15-8.32-17.06-13.72a12.56,12.56,0,0,1,.82-10.55,5.9,5.9,0,0,0-.68-6.39,5.74,5.74,0,0,0-6-1.95c-15.28,4.16-26,14.76-30.94,30.65A69.59,69.59,0,0,0,1,98.9a19.11,19.11,0,0,0,11.2,23.92l1.89.73-2.19,5.67a7.9,7.9,0,1,0,14.75,5.69l2.18-5.66,5.67,2.19-2.19,5.66a7.9,7.9,0,1,0,14.74,5.69l2.31-6a18.42,18.42,0,0,0,8.66-.53,11.5,11.5,0,0,1,3.76-.51,11.38,11.38,0,0,1,3.73.76c41.67,16.1,40.64,15.1,43.24,18.5,2.13,2.8,4,5.58,7.42,7.66l-2.28,5.91a7.91,7.91,0,0,0,14.75,5.7l2.18-5.67,12,4.63-2.19,5.66a7.9,7.9,0,0,0,14.75,5.69l2.18-5.66,12,4.63-2.19,5.66a7.9,7.9,0,1,0,14.75,5.69l2.71-7c11.53,2,28.79,2.39,32.21-6.45a28.55,28.55,0,0,0,2-10.33C219,161.61,213.52,153,202.72,145.78ZM92.28,68.41c.6-2.48,2.47-4.64,5.57-6.45l7.34,10.41a.39.39,0,0,1-.1.08c-.45.38-.9.73-1.35,1.08l-.37.28q-.74.57-1.47,1.08l-.07,0c-.47.33-.94.65-1.41,1l-.37.24c-.5.32-1,.62-1.48.9s-1.09.62-1.63.91c-.17.08-.35.16-.51.25-.39.2-.76.38-1.15.56l-.25.12C93.37,76.31,91.35,72.2,92.28,68.41ZM34.54,51.8a19,19,0,0,0-.19,14.08c2.64,6.9,9.23,12.73,19.11,16.9l-.06,0c-.32,0-.65.06-1,.07h-.15a8,8,0,0,1-.85,0h-.26a8.47,8.47,0,0,1-.88-.07h-.14c-.34,0-.67-.1-1-.17l-.27,0-.81-.19-.29-.08c-.35-.1-.7-.2-1.06-.32l-.15-.06c-.32-.11-.64-.22-1-.35l-.33-.13L44.33,81l-.21-.09L43,80.36l-.29-.16c-.32-.16-.62-.34-1-.52l-.32-.19c-.41-.23-.82-.48-1.24-.74l-.08,0-1.2-.77c-.11-.09-.23-.17-.35-.25l-1.08-.74-.26-.19c-.44-.32-.9-.65-1.36-1-.09-.08-.2-.15-.3-.23l-1.13-.87L34,74.34c-.48-.38-1-.77-1.45-1.17l-.65-.52-.23-.16-.43-.32L31,72l-.41-.26-.29-.19c-.13-.08-.26-.16-.4-.23a2.29,2.29,0,0,0-.31-.18l-.39-.21-.31-.16-.4-.2-.33-.14-.39-.18-.33-.13-.16-.06A.9.9,0,0,0,27,70l-.41-.16-.37-.12-.41-.12-.38-.11-.42-.11-.38-.09-.43-.09-.39-.08L23.42,69,23,69l-.44,0-.4,0-.44,0-.41,0H19.62l-.46,0c-.14,0-.28,0-.42,0l-.46,0-.42,0-.48.06L17,69l-.48.08-.42.07-.48.09-.43.09-.49.12-.43.1-.49.13-.24.07A35.1,35.1,0,0,1,34.54,51.8ZM20.25,132.44a1,1,0,0,1-1.93-.74L20.51,126l1.93.75Zm20.4,7.88a1,1,0,0,1-1.92-.74l2.19-5.67,1.92.74Zm81.58,31.51a1,1,0,0,1-1.92-.74l2.18-5.66,1.93.74Zm26.71,10.32a1,1,0,0,1-1.92-.74l2.19-5.67,1.92.75Zm26.72,10.32a1,1,0,1,1-1.92-.74L176,185.9h0c.58.17,1.19.34,1.81.5l.15.05Zm35.94-16.78-79.92-30.87a3.43,3.43,0,0,0-2.47,6.41h0l77.66,30c-4.86,1.32-13.79,1.43-23.58-.59l-2.21-.5c-1.82-.44-3.53-.93-5.06-1.44l-.89-.32-.59-.23-52.78-20.38-.23-.09c-6.75-2.61-6.13-9.24-15.25-12.77L68,130.13a18.16,18.16,0,0,0-12-.4,11.45,11.45,0,0,1-7.49-.25L14.69,116.42A12.26,12.26,0,0,1,6.91,104l108,41.7h0l.62.24a3.44,3.44,0,0,0,2.48-6.41L7.81,97a64.21,64.21,0,0,1,2.28-18.44l.08,0,1.18-.6.2-.08c.39-.19.77-.36,1.16-.52l.18-.08L14,76.79l.16-.06c.38-.13.76-.26,1.14-.37l.12,0c.39-.11.76-.21,1.14-.29l.08,0c.39-.09.77-.16,1.16-.22s.76-.1,1.13-.14H19c.35,0,.71,0,1.06,0h.1c.34,0,.68,0,1,0h.12c.32,0,.65.06,1,.11l.14,0a9.4,9.4,0,0,1,.92.2l.14,0a9.18,9.18,0,0,1,.89.28l.13,0c.29.11.59.22.87.35a.67.67,0,0,0,.12.06c.29.14.57.28.85.44l.09,0q.43.26.84.54l.06,0a10.34,10.34,0,0,1,.84.64c.33.28.66.54,1,.81l.28.22.72.58.36.29c.22.16.44.34.66.51l.39.29.62.48.43.31c.2.15.4.3.61.44l.43.31.62.43.44.31.61.4.46.3.6.38c.15.11.31.2.47.3l.6.36.48.29.6.34.49.27.6.32.49.25c.2.11.4.2.6.3s.34.17.51.24l.6.28.51.22.6.24.52.2.6.22.53.19.6.19.52.16.61.16.53.13.62.14.53.1c.21,0,.41.07.62.11l.53.08.63.07.52,0,.64,0,.53,0h1.16l.69,0,.49,0,.71-.09.47-.06c.26,0,.54-.1.81-.16l.37-.07c.39-.08.79-.19,1.19-.3l.11-.05c.36-.1.71-.22,1.07-.35.14,0,.28-.11.42-.16l.78-.31.48-.23c.24-.11.48-.21.71-.33l.52-.28c.22-.12.45-.24.68-.38l.54-.32.54-.34c12.17,3.6,22.32,3.6,31.81,0h0c.52-.2,1-.41,1.57-.63l.39-.16,1.47-.66.11,0,1.22-.61,5.14,4.65-3,2.19a3.44,3.44,0,0,0,4,5.58l4.22-3,7.11,6.43-3.08,2.22a3.43,3.43,0,1,0,4,5.57l4.28-3.07,7.11,6.43-3.13,2.25a3.43,3.43,0,1,0,4,5.57l4.32-3.11,7.11,6.44-3.18,2.3a3.44,3.44,0,0,0,4,5.58L147.1,127l5.63,5.1s0,0,.05,0l0,0,.05,0a.12.12,0,0,0,0,.05l.06.06.08.07.06.06a0,0,0,0,1,0,0l-2.57,1.86a3.44,3.44,0,1,0,4,5.58l4.22-3.05.2.13.52.35.26.17.3.2.26.17.3.19.27.17.32.19.27.17.33.2.31.18.56.32.31.18.33.19a3,3,0,0,0,.31.15l.34.19.3.16.35.18.31.15.35.18.36.17.61.28.33.15.36.16.33.14.36.15.34.13.24.1.16.06.12,0,.51.19.13,0,.49.17.15,0,.5.17.13,0,.53.15.1,0,.59.16h.05c.65.16,1.31.3,2,.41h.05l.58.09.14,0,.5.06h.18l.46,0,.2,0,.44,0h1.49l.48,0h.16l.57-.06H179c.42,0,.84-.12,1.27-.21a.76.76,0,0,1,.16,0l.46-.11.21-.06.4-.11.24-.08.38-.12a1.7,1.7,0,0,1,.24-.09l.36-.15.25-.1.36-.16.24-.12a4,4,0,0,0,.36-.17l.24-.13c.13-.07.24-.14.37-.2l.17-.11c4.62,3.29,9.39,6.57,14.22,9.79C209.42,158.5,213.67,166.62,211.6,175.69ZM153,108.07l-4.77-.75a2.89,2.89,0,0,0-.65.57,3.42,3.42,0,0,0-.37,4l12.6,2Q156.39,111,153,108.07Z"/><path class="cls-1" d="M196.64,0a70.38,70.38,0,0,0-68.87,84.59A69.43,69.43,0,0,0,132,98a67.52,67.52,0,0,0,4.27,8.34,70.27,70.27,0,0,0,58.85,34.25l1.53,0A70.33,70.33,0,1,0,196.64,0Zm65.62,69.44-11.5-13.79,3.81-16.17A65.41,65.41,0,0,1,262.26,69.44ZM251.1,33.73l-4.87,20.71L220.55,63,199,45.76V20.34l24.62-9.85A66.1,66.1,0,0,1,251.1,33.73Zm-33.66,32.8-6.22,24.89H182.06l-6.22-24.9,20.8-16.64ZM217.21,8l-20.57,8.22L176,8A65.4,65.4,0,0,1,217.21,8Zm-47.64,2.54,24.73,9.79V45.76L172.73,63l-25.68-8.56-4.87-20.71A66.06,66.06,0,0,1,169.57,10.55ZM138.72,39.49l3.8,16.18L131,69.45A65.3,65.3,0,0,1,138.72,39.49Zm-7.41,36.95L145.84,59l25.4,8.46,6.44,25.8L165.14,110,153,108.07l-4.77-.75-6.48-1c-.37-.55-.72-1.1-1.07-1.66a65.47,65.47,0,0,1-9.41-28.19Zm14.4,35.22,1.54.24,12.6,2,4.91.77,4.29,6.72,7.24,11.34a66.25,66.25,0,0,1-22.93-13.11c-.85-.75-1.69-1.52-2.51-2.32A65.35,65.35,0,0,1,145.71,111.66Zm41.86,23.67c-1.53-.21-3-.47-4.56-.79v0l-3-4.75L169,112.62,181.4,96.11h30.48l12.56,16.6-12.19,21.35A65.15,65.15,0,0,1,187.57,135.33Zm31.2-3.22,10-17.49,18.84-3A66,66,0,0,1,218.77,132.11Zm32.72-25.82L228.25,110,215.59,93.24,222,67.46,247.43,59,262,76.45A65,65,0,0,1,251.49,106.29Z"/></g></g></svg>